<svg width="206" height="90" viewBox="0 0 206 90" fill="none" xmlns="http://www.w3.org/2000/svg">
<g filter="url(#filter0_d_693_825)">
<path fill-rule="evenodd" clip-rule="evenodd" d="M126.385 5.34797C121.072 2.37271 114.617 2.27561 109.217 5.08973L90.053 15.0766C90.3217 16.3784 90.4846 18.0845 90.4846 19.9522C90.4846 21.5786 90.3611 23.0823 90.1518 24.3033H100.275C100.339 24.3033 100.402 24.3073 100.463 24.3149C100.724 24.3073 100.989 24.3033 101.258 24.3033C104.805 24.3033 107.68 24.9895 107.68 25.8359C107.68 26.6823 104.805 27.3685 101.258 27.3685C100.91 27.3685 100.568 27.3618 100.235 27.3491H60.9448C60.6118 27.3618 60.2702 27.3685 59.9221 27.3685C56.3753 27.3685 53.5 26.6823 53.5 25.8359C53.5 25.071 55.8479 24.437 58.9176 24.322C58.9954 24.3097 59.0752 24.3033 59.1565 24.3033H59.8931L59.9221 24.3033L59.951 24.3033H87.3365C87.1272 23.0823 87.0037 21.5786 87.0037 19.9522C87.0037 18.718 87.0748 17.5543 87.2006 16.5313C87.1836 16.5405 87.1665 16.5498 87.1494 16.559C84.0268 18.241 81.17 19.0005 80.7686 18.2553C80.3672 17.5102 82.5732 15.5425 85.6958 13.8604C86.3002 13.5348 86.8948 13.2438 87.4635 12.9915L107.809 2.3887C114.12 -0.900085 121.664 -0.786612 127.873 2.6905L143.577 11.4847C143.571 11.3359 143.568 11.185 143.568 11.0324C143.568 8.50918 144.348 6.46371 145.309 6.46371C146.27 6.46371 147.049 8.50918 147.049 11.0324C147.049 11.8675 146.964 12.6504 146.815 13.324C147.05 13.4416 147.287 13.5648 147.526 13.6934C150.648 15.3754 152.854 17.3431 152.453 18.0882C152.051 18.8334 149.195 18.074 146.072 16.392C145.528 16.0991 145.012 15.7976 144.533 15.4953C144.47 15.4704 144.408 15.441 144.347 15.4069L126.385 5.34797Z" fill="url(#paint0_linear_693_825)"/>
</g>
<g filter="url(#filter1_d_693_825)">
<path d="M11.3984 38.3802H17.6191C20.2806 38.3802 22.2949 38.7539 23.6621 39.5013C25.0293 40.2487 25.7129 41.5612 25.7129 43.4388C25.7129 44.1953 25.5898 44.8789 25.3438 45.4896C25.1068 46.1002 24.7604 46.6015 24.3047 46.9935C23.849 47.3854 23.293 47.6406 22.6367 47.7591V47.8958C23.3021 48.0325 23.9036 48.2695 24.4414 48.6068C24.9792 48.9349 25.4076 49.4179 25.7266 50.056C26.0547 50.6849 26.2188 51.5234 26.2188 52.5716C26.2188 53.7838 25.9225 54.8229 25.3301 55.6888C24.7376 56.5547 23.89 57.22 22.7871 57.6849C21.6934 58.1406 20.39 58.3685 18.877 58.3685H11.3984V38.3802ZM15.6367 46.2962H18.0977C19.3281 46.2962 20.1803 46.1048 20.6543 45.722C21.1283 45.3301 21.3652 44.7558 21.3652 43.9993C21.3652 43.2337 21.0827 42.6868 20.5176 42.3587C19.9616 42.0215 19.0775 41.8528 17.8652 41.8528H15.6367V46.2962ZM15.6367 49.6595V54.8685H18.3984C19.6745 54.8685 20.5632 54.6224 21.0645 54.1302C21.5658 53.638 21.8164 52.9772 21.8164 52.1478C21.8164 51.6556 21.707 51.2226 21.4883 50.8489C21.2695 50.4752 20.9004 50.1836 20.3809 49.9739C19.8704 49.7643 19.1641 49.6595 18.2617 49.6595H15.6367ZM30.2109 58.3685V38.3802H34.4492V54.8685H42.5566V58.3685H30.2109ZM62.3125 38.3802V51.3138C62.3125 52.6901 62.0072 53.9342 61.3965 55.0462C60.7949 56.1491 59.8789 57.0241 58.6484 57.6712C57.4271 58.3183 55.8867 58.6419 54.0273 58.6419C51.3841 58.6419 49.3698 57.9674 47.9844 56.6185C46.599 55.2695 45.9062 53.4831 45.9062 51.2591V38.3802H50.1309V50.6165C50.1309 52.2663 50.4681 53.4238 51.1426 54.0892C51.8171 54.7545 52.8151 55.0872 54.1367 55.0872C55.0664 55.0872 55.8184 54.9277 56.3926 54.6087C56.9759 54.2897 57.4043 53.7975 57.6777 53.1321C57.9512 52.4668 58.0879 51.6191 58.0879 50.5892V38.3802H62.3125ZM75.6699 58.3685L70.8574 42.6868H70.7344C70.7526 43.0605 70.7799 43.6256 70.8164 44.3821C70.862 45.1295 70.903 45.9271 70.9395 46.7747C70.9759 47.6224 70.9941 48.388 70.9941 49.0716V58.3685H67.207V38.3802H72.9766L77.707 53.6653H77.7891L82.8066 38.3802H88.5762V58.3685H84.625V48.9075C84.625 48.2786 84.6341 47.554 84.6523 46.7337C84.6797 45.9134 84.7116 45.1341 84.748 44.3958C84.7845 43.6484 84.8118 43.0879 84.8301 42.7142H84.707L79.5527 58.3685H75.6699ZM93.6211 58.3685V38.3802H97.8594V58.3685H93.6211ZM114.334 58.3685H110.164V38.3802H121.621V41.8528H114.334V47.0071H121.115V50.4661H114.334V58.3685ZM143.674 48.347C143.674 49.8873 143.482 51.291 143.1 52.5579C142.717 53.8157 142.133 54.9004 141.35 55.8118C140.575 56.7233 139.59 57.4251 138.396 57.9173C137.202 58.4004 135.79 58.6419 134.158 58.6419C132.527 58.6419 131.114 58.4004 129.92 57.9173C128.726 57.4251 127.737 56.7233 126.953 55.8118C126.178 54.9004 125.6 53.8112 125.217 52.5443C124.834 51.2773 124.643 49.8691 124.643 48.3196C124.643 46.2506 124.98 44.4505 125.654 42.9193C126.338 41.3789 127.386 40.1849 128.799 39.3372C130.212 38.4896 132.007 38.0657 134.186 38.0657C136.355 38.0657 138.137 38.4896 139.531 39.3372C140.935 40.1849 141.974 41.3789 142.648 42.9193C143.332 44.4596 143.674 46.2689 143.674 48.347ZM129.086 48.347C129.086 49.7415 129.259 50.9446 129.605 51.9564C129.961 52.959 130.512 53.7337 131.26 54.2806C132.007 54.8183 132.973 55.0872 134.158 55.0872C135.361 55.0872 136.337 54.8183 137.084 54.2806C137.831 53.7337 138.374 52.959 138.711 51.9564C139.057 50.9446 139.23 49.7415 139.23 48.347C139.23 46.2506 138.839 44.6009 138.055 43.3978C137.271 42.1946 135.981 41.5931 134.186 41.5931C132.992 41.5931 132.016 41.8665 131.26 42.4134C130.512 42.9512 129.961 43.7259 129.605 44.7376C129.259 45.7402 129.086 46.9433 129.086 48.347ZM155.404 47.1439H163.334V57.5071C162.286 57.8535 161.197 58.1315 160.066 58.3411C158.936 58.5416 157.656 58.6419 156.225 58.6419C154.238 58.6419 152.551 58.25 151.166 57.4661C149.781 56.6823 148.728 55.5247 148.008 53.9935C147.288 52.4622 146.928 50.5801 146.928 48.347C146.928 46.2506 147.329 44.4368 148.131 42.9056C148.942 41.3743 150.122 40.1894 151.672 39.3509C153.23 38.5123 155.131 38.0931 157.373 38.0931C158.43 38.0931 159.474 38.207 160.504 38.4349C161.534 38.6627 162.468 38.959 163.307 39.3235L161.898 42.7142C161.288 42.4043 160.59 42.1445 159.807 41.9349C159.023 41.7252 158.202 41.6204 157.346 41.6204C156.115 41.6204 155.044 41.903 154.133 42.4681C153.23 43.0332 152.529 43.8262 152.027 44.847C151.535 45.8587 151.289 47.0527 151.289 48.429C151.289 49.7324 151.467 50.89 151.822 51.9017C152.178 52.9043 152.738 53.6927 153.504 54.2669C154.27 54.832 155.268 55.1146 156.498 55.1146C157.1 55.1146 157.605 55.0872 158.016 55.0325C158.435 54.9687 158.827 54.9049 159.191 54.8411V50.6712H155.404V47.1439ZM179.617 58.3685H168.105V38.3802H179.617V41.8528H172.344V46.2415H179.111V49.7142H172.344V54.8685H179.617V58.3685ZM183.801 58.3685V38.3802H188.039V54.8685H196.146V58.3685H183.801Z" fill="black"/>
</g>
<g filter="url(#filter2_d_693_825)">
<path d="M30.7002 79.3685L29.9922 77.3714H27.2529L26.5498 79.3685H25.334L27.9951 72.2005H29.2695L31.9258 79.3685H30.7002ZM29.6895 76.3802L29.0059 74.4124C28.9798 74.3278 28.9424 74.209 28.8936 74.056C28.8447 73.903 28.7959 73.7467 28.7471 73.5872C28.6982 73.4245 28.6576 73.2894 28.625 73.1819C28.5924 73.3154 28.5534 73.4635 28.5078 73.6263C28.4622 73.789 28.4167 73.942 28.3711 74.0853C28.3288 74.2252 28.2946 74.3343 28.2686 74.4124L27.5801 76.3802H29.6895ZM35.4805 73.8655C35.5716 73.8655 35.6709 73.8704 35.7783 73.8802C35.889 73.89 35.9818 73.903 36.0566 73.9193L35.9541 74.9788C35.8825 74.9593 35.7962 74.9446 35.6953 74.9349C35.5977 74.9219 35.5098 74.9153 35.4316 74.9153C35.2266 74.9153 35.0312 74.9495 34.8457 75.0179C34.6602 75.0862 34.4958 75.1888 34.3525 75.3255C34.2093 75.4622 34.0954 75.6331 34.0107 75.8382C33.9294 76.04 33.8887 76.2744 33.8887 76.5413V79.3685H32.7559V73.9681H33.6445L33.7959 74.9202H33.8496C33.957 74.7282 34.0905 74.5524 34.25 74.3929C34.4095 74.2334 34.5918 74.1064 34.7969 74.012C35.0052 73.9144 35.2331 73.8655 35.4805 73.8655ZM39.2402 79.4661C38.7292 79.4661 38.2865 79.3668 37.9121 79.1683C37.541 78.9697 37.2546 78.667 37.0527 78.2601C36.8509 77.8499 36.75 77.3291 36.75 76.6976C36.75 76.04 36.859 75.5029 37.0771 75.0862C37.2985 74.6696 37.6045 74.362 37.9951 74.1634C38.389 73.9648 38.8382 73.8655 39.3428 73.8655C39.6618 73.8655 39.9515 73.8981 40.2119 73.9632C40.4756 74.025 40.6986 74.1015 40.8809 74.1927L40.5439 75.096C40.3454 75.0146 40.1419 74.9463 39.9336 74.8909C39.7285 74.8356 39.5283 74.8079 39.333 74.8079C39.014 74.8079 38.7487 74.8795 38.5371 75.0228C38.3288 75.1627 38.1725 75.3727 38.0684 75.6526C37.9642 75.9293 37.9121 76.2744 37.9121 76.6878C37.9121 77.0849 37.9642 77.4202 38.0684 77.6937C38.1758 77.9671 38.332 78.1738 38.5371 78.3138C38.7422 78.4538 38.9961 78.5237 39.2988 78.5237C39.5951 78.5237 39.8604 78.4879 40.0947 78.4163C40.3291 78.3447 40.5488 78.2519 40.7539 78.138V79.1243C40.5521 79.2415 40.334 79.3278 40.0996 79.3831C39.8652 79.4385 39.5788 79.4661 39.2402 79.4661ZM43.1562 71.7708V73.6995C43.1562 73.8948 43.1497 74.0853 43.1367 74.2708C43.127 74.4564 43.1156 74.6012 43.1025 74.7054H43.166C43.2799 74.5166 43.4199 74.362 43.5859 74.2415C43.752 74.1178 43.9375 74.025 44.1426 73.9632C44.3509 73.9013 44.5739 73.8704 44.8115 73.8704C45.2217 73.8704 45.5716 73.9404 45.8613 74.0804C46.1543 74.2171 46.3773 74.4303 46.5303 74.72C46.6833 75.0097 46.7598 75.3857 46.7598 75.848V79.3685H45.6318V76.053C45.6318 75.6331 45.5439 75.3174 45.3682 75.1058C45.1956 74.8942 44.9271 74.7884 44.5625 74.7884C44.2109 74.7884 43.9326 74.8616 43.7275 75.0081C43.5225 75.1546 43.376 75.3694 43.2881 75.6526C43.2002 75.9326 43.1562 76.2744 43.1562 76.678V79.3685H42.0234V71.7708H43.1562ZM49.5039 73.9681V79.3685H48.3711V73.9681H49.5039ZM48.9424 71.8978C49.1182 71.8978 49.2695 71.945 49.3965 72.0394C49.5234 72.1338 49.5869 72.2949 49.5869 72.5228C49.5869 72.7506 49.5234 72.9134 49.3965 73.011C49.2695 73.1054 49.1182 73.1526 48.9424 73.1526C48.7633 73.1526 48.612 73.1054 48.4883 73.011C48.3646 72.9134 48.3027 72.7506 48.3027 72.5228C48.3027 72.2949 48.3646 72.1338 48.4883 72.0394C48.612 71.945 48.7633 71.8978 48.9424 71.8978ZM53.1416 78.553C53.2913 78.553 53.4395 78.54 53.5859 78.514C53.7324 78.4847 53.8659 78.4505 53.9863 78.4114V79.2659C53.8594 79.3245 53.695 79.3717 53.4932 79.4075C53.2946 79.4466 53.0863 79.4661 52.8682 79.4661C52.5654 79.4661 52.292 79.4157 52.0479 79.3148C51.8037 79.2106 51.61 79.0348 51.4668 78.7874C51.3236 78.5368 51.252 78.1901 51.252 77.7474V74.8323H50.5146V74.3245L51.3057 73.9193L51.6816 72.762H52.3896V73.9681H53.9375V74.8323H52.3896V77.7327C52.3896 78.0094 52.458 78.2161 52.5947 78.3528C52.7314 78.4863 52.9137 78.553 53.1416 78.553ZM57.2285 73.8655C57.7103 73.8655 58.1221 73.9648 58.4639 74.1634C58.8089 74.362 59.0742 74.6435 59.2598 75.0081C59.4453 75.3727 59.5381 75.8089 59.5381 76.3167V76.9222H55.9248C55.9378 77.4528 56.0794 77.8613 56.3496 78.1478C56.6198 78.4342 56.999 78.5775 57.4873 78.5775C57.8324 78.5775 58.1416 78.5449 58.415 78.4798C58.6885 78.4114 58.9717 78.3105 59.2646 78.1771V79.0999C58.9945 79.2269 58.7194 79.3196 58.4395 79.3782C58.1595 79.4368 57.8258 79.4661 57.4385 79.4661C56.9079 79.4661 56.4424 79.3636 56.042 79.1585C55.6416 78.9502 55.3291 78.6409 55.1045 78.2308C54.8799 77.8206 54.7676 77.3128 54.7676 76.7073C54.7676 76.1019 54.8685 75.5875 55.0703 75.1644C55.2754 74.7412 55.5618 74.4189 55.9297 74.1976C56.3008 73.9762 56.7337 73.8655 57.2285 73.8655ZM57.2285 74.72C56.8639 74.72 56.5693 74.8388 56.3447 75.0765C56.1201 75.3109 55.9883 75.6559 55.9492 76.1116H58.4248C58.4215 75.8382 58.376 75.5973 58.2881 75.389C58.2035 75.1806 58.0732 75.0179 57.8975 74.9007C57.7249 74.7803 57.502 74.72 57.2285 74.72ZM63.0195 79.4661C62.5085 79.4661 62.0658 79.3668 61.6914 79.1683C61.3203 78.9697 61.0339 78.667 60.832 78.2601C60.6302 77.8499 60.5293 77.3291 60.5293 76.6976C60.5293 76.04 60.6383 75.5029 60.8564 75.0862C61.0778 74.6696 61.3838 74.362 61.7744 74.1634C62.1683 73.9648 62.6175 73.8655 63.1221 73.8655C63.4411 73.8655 63.7308 73.8981 63.9912 73.9632C64.2549 74.025 64.4779 74.1015 64.6602 74.1927L64.3232 75.096C64.1247 75.0146 63.9212 74.9463 63.7129 74.8909C63.5078 74.8356 63.3076 74.8079 63.1123 74.8079C62.7933 74.8079 62.528 74.8795 62.3164 75.0228C62.1081 75.1627 61.9518 75.3727 61.8477 75.6526C61.7435 75.9293 61.6914 76.2744 61.6914 76.6878C61.6914 77.0849 61.7435 77.4202 61.8477 77.6937C61.9551 77.9671 62.1113 78.1738 62.3164 78.3138C62.5215 78.4538 62.7754 78.5237 63.0781 78.5237C63.3743 78.5237 63.6396 78.4879 63.874 78.4163C64.1084 78.3447 64.3281 78.2519 64.5332 78.138V79.1243C64.3314 79.2415 64.1133 79.3278 63.8789 79.3831C63.6445 79.4385 63.3581 79.4661 63.0195 79.4661ZM67.7998 78.553C67.9495 78.553 68.0977 78.54 68.2441 78.514C68.3906 78.4847 68.5241 78.4505 68.6445 78.4114V79.2659C68.5176 79.3245 68.3532 79.3717 68.1514 79.4075C67.9528 79.4466 67.7445 79.4661 67.5264 79.4661C67.2236 79.4661 66.9502 79.4157 66.7061 79.3148C66.4619 79.2106 66.2682 79.0348 66.125 78.7874C65.9818 78.5368 65.9102 78.1901 65.9102 77.7474V74.8323H65.1729V74.3245L65.9639 73.9193L66.3398 72.762H67.0479V73.9681H68.5957V74.8323H67.0479V77.7327C67.0479 78.0094 67.1162 78.2161 67.2529 78.3528C67.3896 78.4863 67.5719 78.553 67.7998 78.553ZM74.4355 73.9681V79.3685H73.5469L73.3906 78.6409H73.3271C73.2132 78.8265 73.0684 78.9811 72.8926 79.1048C72.7168 79.2252 72.5215 79.3148 72.3066 79.3734C72.0918 79.4352 71.8656 79.4661 71.6279 79.4661C71.2178 79.4661 70.8678 79.3978 70.5781 79.261C70.2917 79.1243 70.0719 78.9111 69.9189 78.6214C69.7692 78.3317 69.6943 77.9573 69.6943 77.4984V73.9681H70.832V77.2884C70.832 77.7083 70.9183 78.0241 71.0908 78.2357C71.2633 78.444 71.5303 78.5482 71.8916 78.5482C72.2432 78.5482 72.5215 78.4765 72.7266 78.3333C72.9349 78.1868 73.083 77.9736 73.1709 77.6937C73.2588 77.4137 73.3027 77.0703 73.3027 76.6634V73.9681H74.4355ZM78.8105 73.8655C78.9017 73.8655 79.001 73.8704 79.1084 73.8802C79.2191 73.89 79.3118 73.903 79.3867 73.9193L79.2842 74.9788C79.2126 74.9593 79.1263 74.9446 79.0254 74.9349C78.9277 74.9219 78.8398 74.9153 78.7617 74.9153C78.5566 74.9153 78.3613 74.9495 78.1758 75.0179C77.9902 75.0862 77.8258 75.1888 77.6826 75.3255C77.5394 75.4622 77.4255 75.6331 77.3408 75.8382C77.2594 76.04 77.2188 76.2744 77.2188 76.5413V79.3685H76.0859V73.9681H76.9746L77.126 74.9202H77.1797C77.2871 74.7282 77.4206 74.5524 77.5801 74.3929C77.7396 74.2334 77.9219 74.1064 78.127 74.012C78.3353 73.9144 78.5632 73.8655 78.8105 73.8655ZM82.541 73.8655C83.0228 73.8655 83.4346 73.9648 83.7764 74.1634C84.1214 74.362 84.3867 74.6435 84.5723 75.0081C84.7578 75.3727 84.8506 75.8089 84.8506 76.3167V76.9222H81.2373C81.2503 77.4528 81.3919 77.8613 81.6621 78.1478C81.9323 78.4342 82.3115 78.5775 82.7998 78.5775C83.1449 78.5775 83.4541 78.5449 83.7275 78.4798C84.001 78.4114 84.2842 78.3105 84.5771 78.1771V79.0999C84.307 79.2269 84.0319 79.3196 83.752 79.3782C83.472 79.4368 83.1383 79.4661 82.751 79.4661C82.2204 79.4661 81.7549 79.3636 81.3545 79.1585C80.9541 78.9502 80.6416 78.6409 80.417 78.2308C80.1924 77.8206 80.0801 77.3128 80.0801 76.7073C80.0801 76.1019 80.181 75.5875 80.3828 75.1644C80.5879 74.7412 80.8743 74.4189 81.2422 74.1976C81.6133 73.9762 82.0462 73.8655 82.541 73.8655ZM82.541 74.72C82.1764 74.72 81.8818 74.8388 81.6572 75.0765C81.4326 75.3109 81.3008 75.6559 81.2617 76.1116H83.7373C83.734 75.8382 83.6885 75.5973 83.6006 75.389C83.516 75.1806 83.3857 75.0179 83.21 74.9007C83.0374 74.7803 82.8145 74.72 82.541 74.72ZM90.8662 73.8655C91.5465 73.8655 92.0609 74.0169 92.4092 74.3196C92.7575 74.6224 92.9316 75.0928 92.9316 75.7308V79.3685H92.1309L91.9111 78.6019H91.8721C91.7191 78.7972 91.5612 78.9583 91.3984 79.0853C91.2357 79.2122 91.0469 79.3066 90.832 79.3685C90.6204 79.4336 90.3617 79.4661 90.0557 79.4661C89.7334 79.4661 89.4453 79.4075 89.1914 79.2903C88.9375 79.1699 88.7373 78.9892 88.5908 78.7484C88.4443 78.5042 88.3711 78.195 88.3711 77.8206C88.3711 77.2672 88.5778 76.8506 88.9912 76.5706C89.4079 76.2874 90.0378 76.1328 90.8809 76.1068L91.8135 76.0677V75.7845C91.8135 75.4069 91.7256 75.1383 91.5498 74.9788C91.374 74.8161 91.1283 74.7347 90.8125 74.7347C90.5423 74.7347 90.2803 74.7737 90.0264 74.8519C89.7725 74.93 89.5251 75.0244 89.2842 75.1351L88.918 74.3343C89.1816 74.1976 89.4811 74.0853 89.8164 73.9974C90.1517 73.9095 90.5016 73.8655 90.8662 73.8655ZM91.8086 76.7806L91.1055 76.8099C90.5293 76.8294 90.124 76.9287 89.8896 77.1077C89.6585 77.2835 89.543 77.5244 89.543 77.8304C89.543 78.1006 89.6227 78.2975 89.7822 78.4212C89.945 78.5416 90.1566 78.6019 90.417 78.6019C90.8174 78.6019 91.1494 78.4879 91.4131 78.2601C91.6768 78.0322 91.8086 77.6969 91.8086 77.2542V76.7806ZM97.3457 73.8655C97.9544 73.8655 98.4281 74.0234 98.7666 74.3392C99.1084 74.6517 99.2793 75.1546 99.2793 75.848V79.3685H98.1514V76.053C98.1514 75.6331 98.0635 75.3174 97.8877 75.1058C97.7152 74.8942 97.4466 74.7884 97.082 74.7884C96.5547 74.7884 96.1885 74.9512 95.9834 75.2767C95.7783 75.5989 95.6758 76.0661 95.6758 76.678V79.3685H94.543V73.9681H95.4268L95.5879 74.7005H95.6465C95.7637 74.5117 95.9085 74.3571 96.0811 74.2366C96.2568 74.1129 96.4521 74.0202 96.667 73.9583C96.8851 73.8965 97.1113 73.8655 97.3457 73.8655ZM102.712 79.4661C102.067 79.4661 101.55 79.2318 101.159 78.763C100.772 78.2943 100.578 77.6009 100.578 76.6829C100.578 75.7552 100.775 75.0537 101.169 74.5784C101.566 74.1032 102.089 73.8655 102.736 73.8655C103.01 73.8655 103.249 73.903 103.454 73.9778C103.659 74.0495 103.837 74.1471 103.986 74.2708C104.136 74.3945 104.261 74.5329 104.362 74.6859H104.416C104.4 74.5849 104.382 74.4401 104.362 74.2513C104.343 74.0625 104.333 73.8883 104.333 73.7288V71.7708H105.471V79.3685H104.582L104.382 78.6312H104.333C104.235 78.7874 104.112 78.929 103.962 79.056C103.815 79.1797 103.64 79.279 103.435 79.3538C103.229 79.4287 102.989 79.4661 102.712 79.4661ZM103.024 78.5482C103.519 78.5482 103.869 78.4049 104.074 78.1185C104.279 77.832 104.383 77.4056 104.387 76.8392V76.6829C104.387 76.0742 104.289 75.6071 104.094 75.2816C103.898 74.956 103.539 74.7933 103.015 74.7933C102.598 74.7933 102.281 74.9609 102.062 75.2962C101.844 75.6315 101.735 76.1002 101.735 76.7025C101.735 77.3014 101.844 77.7588 102.062 78.0745C102.281 78.3903 102.601 78.5482 103.024 78.5482ZM109.826 79.3685V72.2298H110.983V79.3685H109.826ZM115.549 73.8655C116.158 73.8655 116.631 74.0234 116.97 74.3392C117.312 74.6517 117.482 75.1546 117.482 75.848V79.3685H116.354V76.053C116.354 75.6331 116.267 75.3174 116.091 75.1058C115.918 74.8942 115.65 74.7884 115.285 74.7884C114.758 74.7884 114.392 74.9512 114.187 75.2767C113.981 75.5989 113.879 76.0661 113.879 76.678V79.3685H112.746V73.9681H113.63L113.791 74.7005H113.85C113.967 74.5117 114.112 74.3571 114.284 74.2366C114.46 74.1129 114.655 74.0202 114.87 73.9583C115.088 73.8965 115.314 73.8655 115.549 73.8655ZM121.091 78.553C121.241 78.553 121.389 78.54 121.535 78.514C121.682 78.4847 121.815 78.4505 121.936 78.4114V79.2659C121.809 79.3245 121.644 79.3717 121.442 79.4075C121.244 79.4466 121.035 79.4661 120.817 79.4661C120.515 79.4661 120.241 79.4157 119.997 79.3148C119.753 79.2106 119.559 79.0348 119.416 78.7874C119.273 78.5368 119.201 78.1901 119.201 77.7474V74.8323H118.464V74.3245L119.255 73.9193L119.631 72.762H120.339V73.9681H121.887V74.8323H120.339V77.7327C120.339 78.0094 120.407 78.2161 120.544 78.3528C120.681 78.4863 120.863 78.553 121.091 78.553ZM125.178 73.8655C125.66 73.8655 126.071 73.9648 126.413 74.1634C126.758 74.362 127.023 74.6435 127.209 75.0081C127.395 75.3727 127.487 75.8089 127.487 76.3167V76.9222H123.874C123.887 77.4528 124.029 77.8613 124.299 78.1478C124.569 78.4342 124.948 78.5775 125.437 78.5775C125.782 78.5775 126.091 78.5449 126.364 78.4798C126.638 78.4114 126.921 78.3105 127.214 78.1771V79.0999C126.944 79.2269 126.669 79.3196 126.389 79.3782C126.109 79.4368 125.775 79.4661 125.388 79.4661C124.857 79.4661 124.392 79.3636 123.991 79.1585C123.591 78.9502 123.278 78.6409 123.054 78.2308C122.829 77.8206 122.717 77.3128 122.717 76.7073C122.717 76.1019 122.818 75.5875 123.02 75.1644C123.225 74.7412 123.511 74.4189 123.879 74.1976C124.25 73.9762 124.683 73.8655 125.178 73.8655ZM125.178 74.72C124.813 74.72 124.519 74.8388 124.294 75.0765C124.069 75.3109 123.938 75.6559 123.898 76.1116H126.374C126.371 75.8382 126.325 75.5973 126.237 75.389C126.153 75.1806 126.022 75.0179 125.847 74.9007C125.674 74.7803 125.451 74.72 125.178 74.72ZM131.516 73.8655C131.607 73.8655 131.706 73.8704 131.813 73.8802C131.924 73.89 132.017 73.903 132.092 73.9193L131.989 74.9788C131.918 74.9593 131.831 74.9446 131.73 74.9349C131.633 74.9219 131.545 74.9153 131.467 74.9153C131.262 74.9153 131.066 74.9495 130.881 75.0179C130.695 75.0862 130.531 75.1888 130.388 75.3255C130.244 75.4622 130.131 75.6331 130.046 75.8382C129.965 76.04 129.924 76.2744 129.924 76.5413V79.3685H128.791V73.9681H129.68L129.831 74.9202H129.885C129.992 74.7282 130.126 74.5524 130.285 74.3929C130.445 74.2334 130.627 74.1064 130.832 74.012C131.04 73.9144 131.268 73.8655 131.516 73.8655ZM134.23 73.9681V79.3685H133.098V73.9681H134.23ZM133.669 71.8978C133.845 71.8978 133.996 71.945 134.123 72.0394C134.25 72.1338 134.313 72.2949 134.313 72.5228C134.313 72.7506 134.25 72.9134 134.123 73.011C133.996 73.1054 133.845 73.1526 133.669 73.1526C133.49 73.1526 133.339 73.1054 133.215 73.011C133.091 72.9134 133.029 72.7506 133.029 72.5228C133.029 72.2949 133.091 72.1338 133.215 72.0394C133.339 71.945 133.49 71.8978 133.669 71.8978ZM140.651 76.6585C140.651 77.1045 140.591 77.5016 140.471 77.8499C140.354 78.1982 140.183 78.4928 139.958 78.7337C139.737 78.9713 139.468 79.1536 139.152 79.2806C138.837 79.4043 138.482 79.4661 138.088 79.4661C137.717 79.4661 137.377 79.4043 137.067 79.2806C136.758 79.1536 136.49 78.9713 136.262 78.7337C136.037 78.4928 135.863 78.1982 135.739 77.8499C135.619 77.5016 135.559 77.1045 135.559 76.6585C135.559 76.0628 135.661 75.5582 135.866 75.1448C136.071 74.7282 136.364 74.4108 136.745 74.1927C137.129 73.9746 137.587 73.8655 138.117 73.8655C138.615 73.8655 139.055 73.9746 139.436 74.1927C139.816 74.4108 140.114 74.7282 140.329 75.1448C140.544 75.5582 140.651 76.0628 140.651 76.6585ZM136.721 76.6585C136.721 77.0524 136.768 77.3909 136.862 77.6741C136.96 77.9541 137.11 78.1689 137.312 78.3187C137.517 78.4684 137.782 78.5433 138.107 78.5433C138.426 78.5433 138.687 78.4684 138.889 78.3187C139.094 78.1689 139.243 77.9541 139.338 77.6741C139.436 77.3909 139.484 77.0524 139.484 76.6585C139.484 76.2614 139.436 75.9245 139.338 75.6478C139.243 75.3711 139.094 75.1595 138.889 75.013C138.687 74.8665 138.423 74.7933 138.098 74.7933C137.619 74.7933 137.269 74.9544 137.048 75.2767C136.83 75.5989 136.721 76.0595 136.721 76.6585ZM144.699 73.8655C144.79 73.8655 144.89 73.8704 144.997 73.8802C145.108 73.89 145.201 73.903 145.275 73.9193L145.173 74.9788C145.101 74.9593 145.015 74.9446 144.914 74.9349C144.816 74.9219 144.729 74.9153 144.65 74.9153C144.445 74.9153 144.25 74.9495 144.064 75.0179C143.879 75.0862 143.715 75.1888 143.571 75.3255C143.428 75.4622 143.314 75.6331 143.229 75.8382C143.148 76.04 143.107 76.2744 143.107 76.5413V79.3685H141.975V73.9681H142.863L143.015 74.9202H143.068C143.176 74.7282 143.309 74.5524 143.469 74.3929C143.628 74.2334 143.811 74.1064 144.016 74.012C144.224 73.9144 144.452 73.8655 144.699 73.8655ZM154.787 75.7308C154.787 76.5348 154.637 77.207 154.338 77.7474C154.038 78.2845 153.604 78.6898 153.034 78.9632C152.468 79.2334 151.781 79.3685 150.974 79.3685H148.996V72.2298H151.193C151.929 72.2298 152.565 72.3633 153.103 72.6302C153.64 72.8939 154.055 73.2861 154.348 73.8069C154.641 74.3245 154.787 74.9658 154.787 75.7308ZM153.581 75.765C153.581 75.179 153.488 74.6956 153.303 74.3148C153.117 73.9339 152.845 73.6523 152.487 73.47C152.129 73.2845 151.688 73.1917 151.164 73.1917H150.153V78.4017H150.993C151.859 78.4017 152.507 78.1803 152.937 77.7376C153.366 77.2949 153.581 76.6373 153.581 75.765ZM158.352 73.8655C158.833 73.8655 159.245 73.9648 159.587 74.1634C159.932 74.362 160.197 74.6435 160.383 75.0081C160.568 75.3727 160.661 75.8089 160.661 76.3167V76.9222H157.048C157.061 77.4528 157.202 77.8613 157.473 78.1478C157.743 78.4342 158.122 78.5775 158.61 78.5775C158.955 78.5775 159.265 78.5449 159.538 78.4798C159.812 78.4114 160.095 78.3105 160.388 78.1771V79.0999C160.118 79.2269 159.842 79.3196 159.562 79.3782C159.283 79.4368 158.949 79.4661 158.562 79.4661C158.031 79.4661 157.565 79.3636 157.165 79.1585C156.765 78.9502 156.452 78.6409 156.228 78.2308C156.003 77.8206 155.891 77.3128 155.891 76.7073C155.891 76.1019 155.992 75.5875 156.193 75.1644C156.398 74.7412 156.685 74.4189 157.053 74.1976C157.424 73.9762 157.857 73.8655 158.352 73.8655ZM158.352 74.72C157.987 74.72 157.692 74.8388 157.468 75.0765C157.243 75.3109 157.111 75.6559 157.072 76.1116H159.548C159.545 75.8382 159.499 75.5973 159.411 75.389C159.326 75.1806 159.196 75.0179 159.021 74.9007C158.848 74.7803 158.625 74.72 158.352 74.72ZM165.593 77.8304C165.593 78.1852 165.507 78.4847 165.334 78.7288C165.161 78.973 164.909 79.1569 164.577 79.2806C164.248 79.4043 163.846 79.4661 163.371 79.4661C162.993 79.4661 162.668 79.4385 162.395 79.3831C162.121 79.331 161.866 79.2497 161.628 79.139V78.1624C161.882 78.2829 162.168 78.387 162.487 78.4749C162.81 78.5595 163.116 78.6019 163.405 78.6019C163.783 78.6019 164.056 78.5433 164.226 78.4261C164.395 78.3056 164.479 78.1445 164.479 77.9427C164.479 77.8222 164.445 77.7148 164.377 77.6204C164.312 77.526 164.188 77.43 164.006 77.3323C163.824 77.2314 163.558 77.1126 163.21 76.9759C162.868 76.8392 162.578 76.7025 162.341 76.5657C162.106 76.429 161.929 76.2646 161.809 76.0726C161.688 75.8773 161.628 75.6282 161.628 75.3255C161.628 74.8502 161.817 74.4889 162.194 74.2415C162.572 73.9909 163.073 73.8655 163.698 73.8655C164.03 73.8655 164.343 73.8981 164.636 73.9632C164.929 74.0283 165.217 74.126 165.5 74.2562L165.144 75.1058C164.899 75.0016 164.654 74.9153 164.406 74.847C164.162 74.7754 163.913 74.7396 163.659 74.7396C163.36 74.7396 163.13 74.7868 162.971 74.8812C162.814 74.9723 162.736 75.1025 162.736 75.2718C162.736 75.402 162.774 75.511 162.849 75.5989C162.927 75.6868 163.059 75.7763 163.244 75.8675C163.43 75.9554 163.687 76.0628 164.016 76.1898C164.338 76.3167 164.616 76.4485 164.851 76.5853C165.088 76.7187 165.271 76.8831 165.397 77.0784C165.528 77.2737 165.593 77.5244 165.593 77.8304ZM167.961 73.9681V79.3685H166.828V73.9681H167.961ZM167.399 71.8978C167.575 71.8978 167.727 71.945 167.854 72.0394C167.98 72.1338 168.044 72.2949 168.044 72.5228C168.044 72.7506 167.98 72.9134 167.854 73.011C167.727 73.1054 167.575 73.1526 167.399 73.1526C167.22 73.1526 167.069 73.1054 166.945 73.011C166.822 72.9134 166.76 72.7506 166.76 72.5228C166.76 72.2949 166.822 72.1338 166.945 72.0394C167.069 71.945 167.22 71.8978 167.399 71.8978ZM171.145 81.7708C170.412 81.7708 169.851 81.639 169.46 81.3753C169.069 81.1116 168.874 80.7422 168.874 80.2669C168.874 79.9349 168.978 79.6533 169.187 79.4222C169.398 79.1943 169.698 79.0364 170.085 78.9485C169.938 78.8834 169.812 78.7825 169.704 78.6458C169.597 78.5058 169.543 78.3528 169.543 78.1868C169.543 77.985 169.6 77.8125 169.714 77.6693C169.831 77.526 170.002 77.386 170.227 77.2493C169.943 77.1321 169.715 76.9368 169.543 76.6634C169.374 76.39 169.289 76.0709 169.289 75.7064C169.289 75.3157 169.372 74.9837 169.538 74.7103C169.704 74.4336 169.945 74.2236 170.261 74.0804C170.58 73.9339 170.967 73.8607 171.423 73.8607C171.521 73.8607 171.625 73.8655 171.735 73.8753C171.849 73.8851 171.957 73.8981 172.058 73.9144C172.159 73.9306 172.235 73.9453 172.287 73.9583H174.152V74.5931L173.229 74.764C173.317 74.8877 173.387 75.0293 173.439 75.1888C173.495 75.3483 173.522 75.5208 173.522 75.7064C173.522 76.2663 173.33 76.7057 172.946 77.0247C172.562 77.3437 172.032 77.5032 171.354 77.5032C171.195 77.5 171.037 77.487 170.881 77.4642C170.764 77.539 170.674 77.6204 170.612 77.7083C170.55 77.7962 170.52 77.8939 170.52 78.0013C170.52 78.0892 170.55 78.1608 170.612 78.2161C170.674 78.2715 170.765 78.3122 170.886 78.3382C171.006 78.3642 171.154 78.3773 171.33 78.3773H172.268C172.857 78.3773 173.308 78.5026 173.62 78.7532C173.933 79.0039 174.089 79.3701 174.089 79.8519C174.089 80.4671 173.835 80.9407 173.327 81.2728C172.823 81.6048 172.095 81.7708 171.145 81.7708ZM171.188 80.9749C171.589 80.9749 171.926 80.9359 172.199 80.8577C172.473 80.7796 172.679 80.6673 172.819 80.5208C172.963 80.3743 173.034 80.2002 173.034 79.9984C173.034 79.8226 172.989 79.6859 172.897 79.5882C172.81 79.4938 172.678 79.4287 172.502 79.3929C172.326 79.3603 172.108 79.3441 171.848 79.3441H170.993C170.778 79.3441 170.59 79.3766 170.427 79.4417C170.264 79.5101 170.137 79.6077 170.046 79.7347C169.958 79.8616 169.914 80.0163 169.914 80.1985C169.914 80.4459 170.025 80.6364 170.246 80.7698C170.467 80.9066 170.782 80.9749 171.188 80.9749ZM171.413 76.7659C171.748 76.7659 171.997 76.6732 172.16 76.4876C172.326 76.3021 172.409 76.0416 172.409 75.7064C172.409 75.3385 172.325 75.0635 172.155 74.8812C171.986 74.6956 171.735 74.6028 171.403 74.6028C171.081 74.6028 170.834 74.6972 170.661 74.886C170.492 75.0716 170.407 75.3467 170.407 75.7112C170.407 76.0433 170.492 76.3021 170.661 76.4876C170.834 76.6732 171.084 76.7659 171.413 76.7659ZM177.941 73.8655C178.55 73.8655 179.024 74.0234 179.362 74.3392C179.704 74.6517 179.875 75.1546 179.875 75.848V79.3685H178.747V76.053C178.747 75.6331 178.659 75.3174 178.483 75.1058C178.311 74.8942 178.042 74.7884 177.678 74.7884C177.15 74.7884 176.784 74.9512 176.579 75.2767C176.374 75.5989 176.271 76.0661 176.271 76.678V79.3685H175.139V73.9681H176.022L176.184 74.7005H176.242C176.359 74.5117 176.504 74.3571 176.677 74.2366C176.853 74.1129 177.048 74.0202 177.263 73.9583C177.481 73.8965 177.707 73.8655 177.941 73.8655Z" fill="url(#paint1_linear_693_825)"/>
</g>
<defs>
<filter id="filter0_d_693_825" x="49.5" y="0" width="107" height="35.3685" filterUnits="userSpaceOnUse" color-interpolation-filters="sRGB">
<feFlood flood-opacity="0" result="BackgroundImageFix"/>
<feColorMatrix in="SourceAlpha" type="matrix" values="0 0 0 0 0 0 0 0 0 0 0 0 0 0 0 0 0 0 127 0" result="hardAlpha"/>
<feOffset dy="4"/>
<feGaussianBlur stdDeviation="2"/>
<feComposite in2="hardAlpha" operator="out"/>
<feColorMatrix type="matrix" values="0 0 0 0 0 0 0 0 0 0 0 0 0 0 0 0 0 0 0.07 0"/>
<feBlend mode="normal" in2="BackgroundImageFix" result="effect1_dropShadow_693_825"/>
<feBlend mode="normal" in="SourceGraphic" in2="effect1_dropShadow_693_825" result="shape"/>
</filter>
<filter id="filter1_d_693_825" x="7.39844" y="38.0657" width="192.748" height="28.5762" filterUnits="userSpaceOnUse" color-interpolation-filters="sRGB">
<feFlood flood-opacity="0" result="BackgroundImageFix"/>
<feColorMatrix in="SourceAlpha" type="matrix" values="0 0 0 0 0 0 0 0 0 0 0 0 0 0 0 0 0 0 127 0" result="hardAlpha"/>
<feOffset dy="4"/>
<feGaussianBlur stdDeviation="2"/>
<feComposite in2="hardAlpha" operator="out"/>
<feColorMatrix type="matrix" values="0 0 0 0 0 0 0 0 0 0 0 0 0 0 0 0 0 0 0.07 0"/>
<feBlend mode="normal" in2="BackgroundImageFix" result="effect1_dropShadow_693_825"/>
<feBlend mode="normal" in="SourceGraphic" in2="effect1_dropShadow_693_825" result="shape"/>
</filter>
<filter id="filter2_d_693_825" x="21.334" y="71.7708" width="162.541" height="18" filterUnits="userSpaceOnUse" color-interpolation-filters="sRGB">
<feFlood flood-opacity="0" result="BackgroundImageFix"/>
<feColorMatrix in="SourceAlpha" type="matrix" values="0 0 0 0 0 0 0 0 0 0 0 0 0 0 0 0 0 0 127 0" result="hardAlpha"/>
<feOffset dy="4"/>
<feGaussianBlur stdDeviation="2"/>
<feComposite in2="hardAlpha" operator="out"/>
<feColorMatrix type="matrix" values="0 0 0 0 0 0 0 0 0 0 0 0 0 0 0 0 0 0 0.07 0"/>
<feBlend mode="normal" in2="BackgroundImageFix" result="effect1_dropShadow_693_825"/>
<feBlend mode="normal" in="SourceGraphic" in2="effect1_dropShadow_693_825" result="shape"/>
</filter>
<linearGradient id="paint0_linear_693_825" x1="166.629" y1="-4.35113" x2="67.4236" y2="28.4999" gradientUnits="userSpaceOnUse">
<stop stop-color="#FCD60D"/>
<stop offset="1" stop-color="#F08233"/>
</linearGradient>
<linearGradient id="paint1_linear_693_825" x1="190.455" y1="57.1685" x2="39.5719" y2="107.797" gradientUnits="userSpaceOnUse">
<stop offset="0.00739073" stop-color="#FCD60D"/>
<stop offset="1" stop-color="#F08233"/>
<stop offset="1" stop-color="#F08233"/>
</linearGradient>
</defs>
</svg>
